<mxfile host="app.diagrams.net" modified="2023-09-27T13:39:02.785Z" agent="Mozilla/5.0 (Windows NT 10.0; Win64; x64) AppleWebKit/537.36 (KHTML, like Gecko) Chrome/116.0.0.0 Safari/537.36" etag="n25Zz_e7U3P5IoyxvECH" version="21.7.5" type="google">
  <diagram name="Page-1" id="-abYSllu3rA4XmmSDU0x">
    <mxGraphModel grid="1" page="1" gridSize="10" guides="1" tooltips="1" connect="1" arrows="1" fold="1" pageScale="1" pageWidth="850" pageHeight="1100" math="0" shadow="0">
      <root>
        <mxCell id="0" />
        <mxCell id="1" parent="0" />
        <mxCell id="s119n0hRVd0cdScqGwsp-1" value="Instructor&lt;br&gt;" style="shape=umlActor;verticalLabelPosition=bottom;verticalAlign=top;html=1;" vertex="1" parent="1">
          <mxGeometry x="20" y="20" width="30" height="50" as="geometry" />
        </mxCell>
        <mxCell id="s119n0hRVd0cdScqGwsp-2" value="Student&lt;br&gt;" style="shape=umlActor;verticalLabelPosition=bottom;verticalAlign=top;html=1;" vertex="1" parent="1">
          <mxGeometry x="160" y="20" width="30" height="50" as="geometry" />
        </mxCell>
        <mxCell id="s119n0hRVd0cdScqGwsp-3" value="TA&lt;br&gt;" style="shape=umlActor;verticalLabelPosition=bottom;verticalAlign=top;html=1;" vertex="1" parent="1">
          <mxGeometry x="310" y="20" width="30" height="50" as="geometry" />
        </mxCell>
        <mxCell id="s119n0hRVd0cdScqGwsp-4" value=": Question Paper" style="rounded=0;whiteSpace=wrap;html=1;fillColor=#d5e8d4;strokeColor=#82b366;" vertex="1" parent="1">
          <mxGeometry x="420" y="20" width="110" height="50" as="geometry" />
        </mxCell>
        <mxCell id="s119n0hRVd0cdScqGwsp-5" value=": Solution" style="rounded=0;whiteSpace=wrap;html=1;fillColor=#dae8fc;strokeColor=#6c8ebf;" vertex="1" parent="1">
          <mxGeometry x="620" y="20" width="110" height="50" as="geometry" />
        </mxCell>
        <mxCell id="s119n0hRVd0cdScqGwsp-6" value=": Copy Machine" style="rounded=0;whiteSpace=wrap;html=1;fillColor=#f8cecc;strokeColor=#b85450;" vertex="1" parent="1">
          <mxGeometry x="820" y="20" width="110" height="50" as="geometry" />
        </mxCell>
        <mxCell id="s119n0hRVd0cdScqGwsp-7" value=": Response" style="rounded=0;whiteSpace=wrap;html=1;fillColor=#e1d5e7;strokeColor=#9673a6;" vertex="1" parent="1">
          <mxGeometry x="1030" y="20" width="110" height="50" as="geometry" />
        </mxCell>
        <mxCell id="s119n0hRVd0cdScqGwsp-8" value="" style="endArrow=none;dashed=1;html=1;rounded=0;" edge="1" parent="1">
          <mxGeometry width="50" height="50" relative="1" as="geometry">
            <mxPoint x="35" y="130" as="sourcePoint" />
            <mxPoint x="35" y="100" as="targetPoint" />
          </mxGeometry>
        </mxCell>
        <mxCell id="s119n0hRVd0cdScqGwsp-12" value="" style="endArrow=none;dashed=1;html=1;rounded=0;" edge="1" parent="1">
          <mxGeometry width="50" height="50" relative="1" as="geometry">
            <mxPoint x="174.49" y="100" as="sourcePoint" />
            <mxPoint x="174.49" y="140" as="targetPoint" />
          </mxGeometry>
        </mxCell>
        <mxCell id="s119n0hRVd0cdScqGwsp-13" value="" style="endArrow=none;dashed=1;html=1;rounded=0;exitX=1;exitY=0.5;exitDx=0;exitDy=0;" edge="1" parent="1" source="s119n0hRVd0cdScqGwsp-24">
          <mxGeometry width="50" height="50" relative="1" as="geometry">
            <mxPoint x="327.62" y="420" as="sourcePoint" />
            <mxPoint x="327.62" y="100" as="targetPoint" />
          </mxGeometry>
        </mxCell>
        <mxCell id="s119n0hRVd0cdScqGwsp-14" value="" style="endArrow=none;dashed=1;html=1;rounded=0;entryX=0.5;entryY=1;entryDx=0;entryDy=0;exitX=1;exitY=0.5;exitDx=0;exitDy=0;" edge="1" parent="1" source="s119n0hRVd0cdScqGwsp-26" target="s119n0hRVd0cdScqGwsp-4">
          <mxGeometry width="50" height="50" relative="1" as="geometry">
            <mxPoint x="475" y="180" as="sourcePoint" />
            <mxPoint x="540" y="280" as="targetPoint" />
          </mxGeometry>
        </mxCell>
        <mxCell id="s119n0hRVd0cdScqGwsp-15" value="" style="endArrow=none;dashed=1;html=1;rounded=0;entryX=0.5;entryY=1;entryDx=0;entryDy=0;exitX=1;exitY=0.5;exitDx=0;exitDy=0;" edge="1" parent="1" source="s119n0hRVd0cdScqGwsp-27" target="s119n0hRVd0cdScqGwsp-5">
          <mxGeometry width="50" height="50" relative="1" as="geometry">
            <mxPoint x="675" y="220" as="sourcePoint" />
            <mxPoint x="540" y="230" as="targetPoint" />
          </mxGeometry>
        </mxCell>
        <mxCell id="s119n0hRVd0cdScqGwsp-16" value="" style="endArrow=none;dashed=1;html=1;rounded=0;entryX=0.5;entryY=1;entryDx=0;entryDy=0;exitX=1;exitY=0.5;exitDx=0;exitDy=0;" edge="1" parent="1" source="s119n0hRVd0cdScqGwsp-28" target="s119n0hRVd0cdScqGwsp-6">
          <mxGeometry width="50" height="50" relative="1" as="geometry">
            <mxPoint x="875" y="270" as="sourcePoint" />
            <mxPoint x="540" y="230" as="targetPoint" />
          </mxGeometry>
        </mxCell>
        <mxCell id="s119n0hRVd0cdScqGwsp-17" value="" style="endArrow=none;dashed=1;html=1;rounded=0;entryX=0.5;entryY=1;entryDx=0;entryDy=0;" edge="1" parent="1" target="s119n0hRVd0cdScqGwsp-7">
          <mxGeometry width="50" height="50" relative="1" as="geometry">
            <mxPoint x="1085" y="380" as="sourcePoint" />
            <mxPoint x="1070" y="130" as="targetPoint" />
          </mxGeometry>
        </mxCell>
        <mxCell id="s119n0hRVd0cdScqGwsp-18" value="" style="rounded=0;whiteSpace=wrap;html=1;rotation=-90;" vertex="1" parent="1">
          <mxGeometry x="-366.25" y="531.25" width="802.5" height="10" as="geometry" />
        </mxCell>
        <mxCell id="s119n0hRVd0cdScqGwsp-19" value="" style="rounded=0;whiteSpace=wrap;html=1;rotation=-90;" vertex="1" parent="1">
          <mxGeometry x="149.37" y="160" width="51.25" height="10" as="geometry" />
        </mxCell>
        <mxCell id="s119n0hRVd0cdScqGwsp-24" value="" style="rounded=0;whiteSpace=wrap;html=1;rotation=-90;" vertex="1" parent="1">
          <mxGeometry x="234.07" y="664.07" width="181.88" height="10" as="geometry" />
        </mxCell>
        <mxCell id="s119n0hRVd0cdScqGwsp-26" value="" style="rounded=0;whiteSpace=wrap;html=1;rotation=-90;" vertex="1" parent="1">
          <mxGeometry x="449.38" y="220" width="51.25" height="10" as="geometry" />
        </mxCell>
        <mxCell id="s119n0hRVd0cdScqGwsp-27" value="" style="rounded=0;whiteSpace=wrap;html=1;rotation=-90;" vertex="1" parent="1">
          <mxGeometry x="649.37" y="280" width="51.25" height="10" as="geometry" />
        </mxCell>
        <mxCell id="s119n0hRVd0cdScqGwsp-28" value="" style="rounded=0;whiteSpace=wrap;html=1;rotation=-90;" vertex="1" parent="1">
          <mxGeometry x="850" y="340" width="51.25" height="10" as="geometry" />
        </mxCell>
        <mxCell id="s119n0hRVd0cdScqGwsp-29" value="" style="rounded=0;whiteSpace=wrap;html=1;rotation=-90;" vertex="1" parent="1">
          <mxGeometry x="814.34" y="642.55" width="541.34" height="10" as="geometry" />
        </mxCell>
        <mxCell id="s119n0hRVd0cdScqGwsp-30" value="" style="endArrow=none;dashed=1;html=1;rounded=0;exitX=1;exitY=0.5;exitDx=0;exitDy=0;" edge="1" parent="1" source="s119n0hRVd0cdScqGwsp-37">
          <mxGeometry width="50" height="50" relative="1" as="geometry">
            <mxPoint x="175" y="340" as="sourcePoint" />
            <mxPoint x="175" y="190" as="targetPoint" />
          </mxGeometry>
        </mxCell>
        <mxCell id="s119n0hRVd0cdScqGwsp-31" value="" style="endArrow=none;dashed=1;html=1;rounded=0;entryX=0;entryY=0.5;entryDx=0;entryDy=0;exitX=1;exitY=0.5;exitDx=0;exitDy=0;" edge="1" parent="1" source="s119n0hRVd0cdScqGwsp-38" target="s119n0hRVd0cdScqGwsp-26">
          <mxGeometry width="50" height="50" relative="1" as="geometry">
            <mxPoint x="475" y="300" as="sourcePoint" />
            <mxPoint x="480" y="270" as="targetPoint" />
          </mxGeometry>
        </mxCell>
        <mxCell id="s119n0hRVd0cdScqGwsp-32" value="" style="endArrow=none;dashed=1;html=1;rounded=0;entryX=0;entryY=0.5;entryDx=0;entryDy=0;exitX=1;exitY=0.5;exitDx=0;exitDy=0;" edge="1" parent="1" source="s119n0hRVd0cdScqGwsp-40" target="s119n0hRVd0cdScqGwsp-27">
          <mxGeometry width="50" height="50" relative="1" as="geometry">
            <mxPoint x="675" y="500" as="sourcePoint" />
            <mxPoint x="480" y="200" as="targetPoint" />
          </mxGeometry>
        </mxCell>
        <mxCell id="s119n0hRVd0cdScqGwsp-33" value="" style="endArrow=none;dashed=1;html=1;rounded=0;entryX=0;entryY=0.5;entryDx=0;entryDy=0;" edge="1" parent="1" target="s119n0hRVd0cdScqGwsp-28">
          <mxGeometry width="50" height="50" relative="1" as="geometry">
            <mxPoint x="876" y="960" as="sourcePoint" />
            <mxPoint x="480" y="400" as="targetPoint" />
          </mxGeometry>
        </mxCell>
        <mxCell id="s119n0hRVd0cdScqGwsp-35" value="" style="rounded=0;whiteSpace=wrap;html=1;rotation=-90;" vertex="1" parent="1">
          <mxGeometry x="156.16" y="381.49" width="37.67" height="10" as="geometry" />
        </mxCell>
        <mxCell id="s119n0hRVd0cdScqGwsp-37" value="" style="rounded=0;whiteSpace=wrap;html=1;rotation=-90;" vertex="1" parent="1">
          <mxGeometry x="90.59" y="441.76" width="168.82" height="10" as="geometry" />
        </mxCell>
        <mxCell id="s119n0hRVd0cdScqGwsp-38" value="" style="rounded=0;whiteSpace=wrap;html=1;rotation=-90;" vertex="1" parent="1">
          <mxGeometry x="406.17" y="377.67" width="137.67" height="10" as="geometry" />
        </mxCell>
        <mxCell id="s119n0hRVd0cdScqGwsp-40" value="" style="rounded=0;whiteSpace=wrap;html=1;rotation=-90;" vertex="1" parent="1">
          <mxGeometry x="638.67" y="668.67" width="72.65" height="10" as="geometry" />
        </mxCell>
        <mxCell id="s119n0hRVd0cdScqGwsp-42" value="" style="endArrow=classic;html=1;rounded=0;exitX=0.973;exitY=1.2;exitDx=0;exitDy=0;exitPerimeter=0;entryX=0.617;entryY=-0.319;entryDx=0;entryDy=0;entryPerimeter=0;" edge="1" parent="1" source="s119n0hRVd0cdScqGwsp-18">
          <mxGeometry width="50" height="50" relative="1" as="geometry">
            <mxPoint x="43.600000000000136" y="159.9950000000001" as="sourcePoint" />
            <mxPoint x="166.80499999999984" y="156.7137500000001" as="targetPoint" />
          </mxGeometry>
        </mxCell>
        <mxCell id="s119n0hRVd0cdScqGwsp-43" value="Back" style="html=1;verticalAlign=bottom;endArrow=open;dashed=1;endSize=8;curved=0;rounded=0;entryX=0.922;entryY=0.8;entryDx=0;entryDy=0;entryPerimeter=0;exitX=0.25;exitY=0;exitDx=0;exitDy=0;" edge="1" parent="1">
          <mxGeometry relative="1" as="geometry">
            <mxPoint x="169.9949999999999" y="181.0825" as="sourcePoint" />
            <mxPoint x="38" y="180.00000000000003" as="targetPoint" />
          </mxGeometry>
        </mxCell>
        <mxCell id="s119n0hRVd0cdScqGwsp-44" value="Makes the paper" style="html=1;verticalAlign=bottom;endArrow=block;curved=0;rounded=0;exitX=0.902;exitY=1.04;exitDx=0;exitDy=0;exitPerimeter=0;entryX=0.75;entryY=0;entryDx=0;entryDy=0;" edge="1" parent="1" source="s119n0hRVd0cdScqGwsp-18" target="s119n0hRVd0cdScqGwsp-26">
          <mxGeometry width="80" relative="1" as="geometry">
            <mxPoint x="380" y="280" as="sourcePoint" />
            <mxPoint x="460" y="280" as="targetPoint" />
          </mxGeometry>
        </mxCell>
        <mxCell id="s119n0hRVd0cdScqGwsp-49" value="Back" style="html=1;verticalAlign=bottom;endArrow=open;dashed=1;endSize=8;curved=0;rounded=0;entryX=0.868;entryY=1.2;entryDx=0;entryDy=0;entryPerimeter=0;" edge="1" parent="1" target="s119n0hRVd0cdScqGwsp-18">
          <mxGeometry relative="1" as="geometry">
            <mxPoint x="470" y="240" as="sourcePoint" />
            <mxPoint x="109" y="240.00000000000003" as="targetPoint" />
          </mxGeometry>
        </mxCell>
        <mxCell id="s119n0hRVd0cdScqGwsp-51" value="Makes the solution for the exam" style="html=1;verticalAlign=bottom;endArrow=block;curved=0;rounded=0;entryX=0.75;entryY=0;entryDx=0;entryDy=0;" edge="1" parent="1" target="s119n0hRVd0cdScqGwsp-27">
          <mxGeometry width="80" relative="1" as="geometry">
            <mxPoint x="40" y="270" as="sourcePoint" />
            <mxPoint x="460" y="274" as="targetPoint" />
          </mxGeometry>
        </mxCell>
        <mxCell id="s119n0hRVd0cdScqGwsp-52" value="Back" style="html=1;verticalAlign=bottom;endArrow=open;dashed=1;endSize=8;curved=0;rounded=0;entryX=0.797;entryY=1;entryDx=0;entryDy=0;entryPerimeter=0;exitX=0.25;exitY=0;exitDx=0;exitDy=0;" edge="1" parent="1" source="s119n0hRVd0cdScqGwsp-27" target="s119n0hRVd0cdScqGwsp-18">
          <mxGeometry relative="1" as="geometry">
            <mxPoint x="480" y="250" as="sourcePoint" />
            <mxPoint x="49" y="246" as="targetPoint" />
          </mxGeometry>
        </mxCell>
        <mxCell id="s119n0hRVd0cdScqGwsp-53" value="Paper Set" style="html=1;verticalAlign=bottom;endArrow=block;curved=0;rounded=0;entryX=0.84;entryY=1.36;entryDx=0;entryDy=0;entryPerimeter=0;" edge="1" parent="1" target="s119n0hRVd0cdScqGwsp-37">
          <mxGeometry width="80" relative="1" as="geometry">
            <mxPoint x="470" y="390" as="sourcePoint" />
            <mxPoint x="200" y="390" as="targetPoint" />
          </mxGeometry>
        </mxCell>
        <mxCell id="s119n0hRVd0cdScqGwsp-54" value="Back" style="html=1;verticalAlign=bottom;endArrow=open;dashed=1;endSize=8;curved=0;rounded=0;" edge="1" parent="1">
          <mxGeometry relative="1" as="geometry">
            <mxPoint x="180" y="430" as="sourcePoint" />
            <mxPoint x="470" y="430" as="targetPoint" />
          </mxGeometry>
        </mxCell>
        <mxCell id="s119n0hRVd0cdScqGwsp-55" value="Write Answers" style="html=1;verticalAlign=bottom;endArrow=block;curved=0;rounded=0;exitX=0.864;exitY=1.04;exitDx=0;exitDy=0;exitPerimeter=0;entryX=0.81;entryY=0.119;entryDx=0;entryDy=0;entryPerimeter=0;" edge="1" parent="1" target="s119n0hRVd0cdScqGwsp-29">
          <mxGeometry width="80" relative="1" as="geometry">
            <mxPoint x="180" y="470" as="sourcePoint" />
            <mxPoint x="1070" y="480" as="targetPoint" />
          </mxGeometry>
        </mxCell>
        <mxCell id="s119n0hRVd0cdScqGwsp-56" value="returns back" style="html=1;verticalAlign=bottom;endArrow=open;dashed=1;endSize=8;curved=0;rounded=0;entryX=0.162;entryY=1.12;entryDx=0;entryDy=0;entryPerimeter=0;" edge="1" parent="1" target="s119n0hRVd0cdScqGwsp-37">
          <mxGeometry relative="1" as="geometry">
            <mxPoint x="1080" y="510" as="sourcePoint" />
            <mxPoint x="220" y="510" as="targetPoint" />
          </mxGeometry>
        </mxCell>
        <mxCell id="s119n0hRVd0cdScqGwsp-57" value="Solution to TA" style="html=1;verticalAlign=bottom;endArrow=block;curved=0;rounded=0;entryX=0.84;entryY=1.36;entryDx=0;entryDy=0;entryPerimeter=0;" edge="1" parent="1">
          <mxGeometry width="80" relative="1" as="geometry">
            <mxPoint x="1080" y="602" as="sourcePoint" />
            <mxPoint x="332" y="602.19" as="targetPoint" />
          </mxGeometry>
        </mxCell>
        <mxCell id="s119n0hRVd0cdScqGwsp-58" value="Given to" style="html=1;verticalAlign=bottom;endArrow=block;curved=0;rounded=0;entryX=0.84;entryY=1.36;entryDx=0;entryDy=0;entryPerimeter=0;exitX=0.823;exitY=-0.239;exitDx=0;exitDy=0;exitPerimeter=0;" edge="1" parent="1" source="s119n0hRVd0cdScqGwsp-40">
          <mxGeometry width="80" relative="1" as="geometry">
            <mxPoint x="1078" y="657.4" as="sourcePoint" />
            <mxPoint x="330" y="652.59" as="targetPoint" />
          </mxGeometry>
        </mxCell>
        <mxCell id="s119n0hRVd0cdScqGwsp-59" value="Back" style="html=1;verticalAlign=bottom;endArrow=open;dashed=1;endSize=8;curved=0;rounded=0;entryX=0.345;entryY=-0.32;entryDx=0;entryDy=0;entryPerimeter=0;exitX=0.406;exitY=0.839;exitDx=0;exitDy=0;exitPerimeter=0;" edge="1" parent="1" target="s119n0hRVd0cdScqGwsp-40" source="s119n0hRVd0cdScqGwsp-24">
          <mxGeometry relative="1" as="geometry">
            <mxPoint x="330" y="700" as="sourcePoint" />
            <mxPoint x="620" y="700" as="targetPoint" />
          </mxGeometry>
        </mxCell>
        <mxCell id="s119n0hRVd0cdScqGwsp-60" value="Marked paper of exam" style="html=1;verticalAlign=bottom;endArrow=open;dashed=1;endSize=8;curved=0;rounded=0;" edge="1" parent="1">
          <mxGeometry relative="1" as="geometry">
            <mxPoint x="330" y="750" as="sourcePoint" />
            <mxPoint x="1080" y="750" as="targetPoint" />
          </mxGeometry>
        </mxCell>
        <mxCell id="s119n0hRVd0cdScqGwsp-61" value="" style="endArrow=none;dashed=1;html=1;rounded=0;entryX=0;entryY=0.25;entryDx=0;entryDy=0;" edge="1" parent="1" target="s119n0hRVd0cdScqGwsp-37">
          <mxGeometry width="50" height="50" relative="1" as="geometry">
            <mxPoint x="173" y="820" as="sourcePoint" />
            <mxPoint x="220" y="680" as="targetPoint" />
          </mxGeometry>
        </mxCell>
        <mxCell id="s119n0hRVd0cdScqGwsp-62" value="" style="rounded=0;whiteSpace=wrap;html=1;rotation=-90;" vertex="1" parent="1">
          <mxGeometry x="127.34000000000003" y="860" width="95.31" height="10" as="geometry" />
        </mxCell>
        <mxCell id="s119n0hRVd0cdScqGwsp-63" value="Marks given to students" style="html=1;verticalAlign=bottom;endArrow=block;curved=0;rounded=0;entryX=0.84;entryY=1.36;entryDx=0;entryDy=0;entryPerimeter=0;" edge="1" parent="1">
          <mxGeometry width="80" relative="1" as="geometry">
            <mxPoint x="1080" y="840" as="sourcePoint" />
            <mxPoint x="182" y="840.19" as="targetPoint" />
          </mxGeometry>
        </mxCell>
        <mxCell id="s119n0hRVd0cdScqGwsp-64" value="Back" style="html=1;verticalAlign=bottom;endArrow=open;dashed=1;endSize=8;curved=0;rounded=0;" edge="1" parent="1">
          <mxGeometry relative="1" as="geometry">
            <mxPoint x="180" y="890" as="sourcePoint" />
            <mxPoint x="1080" y="890" as="targetPoint" />
          </mxGeometry>
        </mxCell>
        <mxCell id="s119n0hRVd0cdScqGwsp-65" value="" style="endArrow=none;dashed=1;html=1;rounded=0;entryX=0;entryY=0.5;entryDx=0;entryDy=0;" edge="1" parent="1" target="s119n0hRVd0cdScqGwsp-38">
          <mxGeometry width="50" height="50" relative="1" as="geometry">
            <mxPoint x="475" y="960" as="sourcePoint" />
            <mxPoint x="580" y="660" as="targetPoint" />
          </mxGeometry>
        </mxCell>
        <mxCell id="s119n0hRVd0cdScqGwsp-66" value="" style="endArrow=none;dashed=1;html=1;rounded=0;entryX=0;entryY=0.5;entryDx=0;entryDy=0;" edge="1" parent="1" target="s119n0hRVd0cdScqGwsp-40">
          <mxGeometry width="50" height="50" relative="1" as="geometry">
            <mxPoint x="675" y="960" as="sourcePoint" />
            <mxPoint x="580" y="660" as="targetPoint" />
          </mxGeometry>
        </mxCell>
        <mxCell id="s119n0hRVd0cdScqGwsp-67" value="" style="endArrow=none;dashed=1;html=1;rounded=0;" edge="1" parent="1">
          <mxGeometry width="50" height="50" relative="1" as="geometry">
            <mxPoint x="1085" y="960" as="sourcePoint" />
            <mxPoint x="1085" y="920" as="targetPoint" />
          </mxGeometry>
        </mxCell>
        <mxCell id="s119n0hRVd0cdScqGwsp-68" value="Makes copies" style="html=1;verticalAlign=bottom;endArrow=block;curved=0;rounded=0;exitX=0.902;exitY=1.04;exitDx=0;exitDy=0;exitPerimeter=0;" edge="1" parent="1">
          <mxGeometry width="80" relative="1" as="geometry">
            <mxPoint x="480" y="332" as="sourcePoint" />
            <mxPoint x="870" y="332" as="targetPoint" />
          </mxGeometry>
        </mxCell>
        <mxCell id="s119n0hRVd0cdScqGwsp-69" value="gives the copy" style="html=1;verticalAlign=bottom;endArrow=open;dashed=1;endSize=8;curved=0;rounded=0;entryX=0.66;entryY=1.279;entryDx=0;entryDy=0;entryPerimeter=0;" edge="1" parent="1" target="s119n0hRVd0cdScqGwsp-38">
          <mxGeometry relative="1" as="geometry">
            <mxPoint x="870" y="360" as="sourcePoint" />
            <mxPoint x="570" y="421" as="targetPoint" />
          </mxGeometry>
        </mxCell>
        <mxCell id="s119n0hRVd0cdScqGwsp-70" value="" style="endArrow=none;dashed=1;html=1;rounded=0;entryX=0;entryY=0.5;entryDx=0;entryDy=0;" edge="1" parent="1" target="s119n0hRVd0cdScqGwsp-62">
          <mxGeometry width="50" height="50" relative="1" as="geometry">
            <mxPoint x="175" y="960" as="sourcePoint" />
            <mxPoint x="193.82999999999998" y="960" as="targetPoint" />
          </mxGeometry>
        </mxCell>
        <mxCell id="s119n0hRVd0cdScqGwsp-71" value="" style="endArrow=none;dashed=1;html=1;rounded=0;" edge="1" parent="1">
          <mxGeometry width="50" height="50" relative="1" as="geometry">
            <mxPoint x="35" y="960" as="sourcePoint" />
            <mxPoint x="35" y="940" as="targetPoint" />
          </mxGeometry>
        </mxCell>
        <mxCell id="s119n0hRVd0cdScqGwsp-72" value="" style="endArrow=none;dashed=1;html=1;rounded=0;entryX=0;entryY=0.5;entryDx=0;entryDy=0;" edge="1" parent="1" target="s119n0hRVd0cdScqGwsp-24">
          <mxGeometry width="50" height="50" relative="1" as="geometry">
            <mxPoint x="325" y="960" as="sourcePoint" />
            <mxPoint x="590" y="810" as="targetPoint" />
          </mxGeometry>
        </mxCell>
      </root>
    </mxGraphModel>
  </diagram>
</mxfile>
